<svg width="56" height="104" viewBox="0 0 56 104" fill="none" xmlns="http://www.w3.org/2000/svg">
<path d="M31.5996 64.9333C31.4644 67.2322 30.5178 69.1255 29.4359 71.0187C29.3007 71.2892 29.1654 71.5597 29.0302 71.8301C28.2188 70.2074 28.354 68.3141 28.354 66.2856C28.2188 64.1219 27.9484 61.6877 28.0836 59.3888C28.2188 57.3603 29.5712 56.2784 30.9235 54.9261C32.411 53.3033 33.7634 51.4101 34.9804 49.5168C37.4146 45.7303 39.984 42.2143 42.6887 38.6982C44.9876 35.5879 48.9094 31.1252 49.1798 27.2035C49.3151 24.4989 46.3399 21.2533 43.3648 22.0647C40.3897 23.0113 40.3897 29.6377 40.1193 32.0719C39.4431 36.6698 38.6317 40.7267 36.3328 44.9189C34.1691 48.7054 31.7349 53.3033 28.0836 55.8727C27.6779 54.6556 28.2188 52.8976 28.2188 51.6805C28.3541 50.3282 28.354 48.8407 28.354 47.4883C28.4893 45.1894 28.2188 43.1609 29.5712 41.1324C32.5463 36.5345 36.7385 32.748 38.9022 27.7444C39.5783 25.9864 39.1726 24.0932 37.1441 23.417C34.5747 22.6056 33.6281 25.0398 33.3576 27.0683C33.0872 29.3672 33.6281 31.6662 32.952 33.8299C32.2758 35.9936 30.7882 37.8869 29.4359 39.7801C29.4359 38.0221 29.7064 36.3993 29.9768 34.7765C32.0053 23.417 31.5996 27.7444 32.2758 24.4989C32.8167 22.6056 33.6281 20.8476 35.1156 19.2248C37.9555 16.2497 40.9306 13.4098 43.3648 10.029C44.5819 8.27099 45.6638 6.10727 44.5819 3.94356C43.7705 2.0503 40.5249 -0.248657 38.4965 0.0218072C36.0623 0.427504 35.6566 5.29587 35.1156 7.18912C33.0872 14.086 32.2758 20.9828 29.8416 27.7444C29.9768 27.3387 29.3007 25.8512 29.1654 25.3103C29.0302 24.2284 29.3007 23.1465 29.5712 22.0647C30.1121 19.901 31.0587 16.5202 30.5178 14.3564C29.7064 11.3813 24.4323 15.0326 24.1619 17.1963C24.0266 19.0896 25.2437 20.8476 26.1903 22.3351C27.4074 24.3636 28.4893 26.5273 29.0302 28.8263C29.4359 31.1252 29.0302 33.0185 28.6245 35.3174C28.4893 36.2641 28.2188 38.6982 27.2722 39.6449C27.137 39.7801 27.0017 39.9153 26.8665 39.9153C26.7313 39.9153 26.7313 39.7801 26.596 39.7801C25.6494 38.8335 21.9981 32.3423 21.1867 29.5024C20.6458 28.0149 20.2401 26.3921 20.3753 24.9046C20.5106 20.3067 27.4074 12.8689 23.4857 8.54144C22.1334 7.05389 18.3469 5.97203 16.4536 6.78342C14.1547 7.86528 15.2365 11.9223 15.3718 13.9507C15.7775 17.3315 16.5888 20.4419 17.6707 23.6875C18.7525 26.7978 20.2401 29.7729 20.7811 33.1537C19.023 32.0719 16.7241 31.2605 15.507 29.6377C14.2899 28.0149 14.1546 25.8512 13.6137 23.8227C12.5319 19.6305 11.3148 14.7621 6.98734 12.7337C5.63502 12.0575 2.79513 11.1109 1.98373 12.8689C1.17234 14.4917 2.93037 17.8725 3.4713 19.36C5.09408 23.2818 7.79875 26.5273 11.3148 28.8263C14.6956 31.1252 19.8344 32.4776 22.4038 35.8584C23.8914 37.8868 25.3789 40.321 26.596 42.62C27.5427 44.378 27.1369 46.0008 27.0017 47.894C26.7312 52.8976 26.596 57.766 26.8665 62.7696C27.0017 66.5561 27.8131 70.7483 27.6779 74.67C27.5426 75.0757 27.5427 75.3462 27.4074 75.6167C27.2722 75.7519 27.2722 75.7519 27.1369 75.7519C25.1085 72.6415 24.7028 69.2607 24.2971 65.7447C24.4323 64.6628 24.5675 63.581 24.9732 62.2286C25.3789 60.7411 25.7846 59.1183 26.1903 57.6308C26.596 55.8727 26.596 54.9261 25.9199 53.3033C24.838 50.5987 22.2686 50.3282 19.5639 50.7339C16.7241 51.1396 16.4536 52.7624 16.9945 55.3318C17.6707 58.3069 18.7525 60.8763 20.3753 63.4458C21.9981 66.0152 22.8095 68.5846 23.8914 71.4244C24.838 73.9939 25.9199 76.2928 26.7313 78.8622C26.8665 79.1327 27.0017 79.4032 26.8665 79.6736C26.7313 79.6736 26.7313 79.6736 26.596 79.6736C26.596 79.6736 26.596 79.5384 26.4608 79.5384L26.3255 79.4032C26.1903 79.2679 26.0551 78.9975 25.9199 78.9975C25.1085 78.1861 24.4323 77.2394 23.7561 76.2928C22.539 74.2643 21.322 72.3711 19.9697 70.3426C18.7526 68.3141 17.5355 66.2856 16.3184 64.3924C15.1013 62.4991 13.4785 60.4706 12.8023 58.3069C11.7205 54.6557 12.9376 50.193 13.3433 46.5417C13.6137 43.7018 13.8842 40.0506 10.5034 39.1039C8.47491 38.563 3.33608 38.563 3.06562 41.2677C2.93038 43.0257 3.74177 45.1894 4.2827 46.8122C4.82363 48.5702 5.22934 50.3282 5.9055 51.951C7.39306 55.7375 10.2329 58.0365 12.6671 61.282C15.1013 64.5276 16.8593 68.3141 18.8878 71.8301C21.0515 75.4814 23.3504 78.727 26.4608 81.7021C29.1654 84.2715 28.6245 89.4104 28.7598 92.9264C25.3789 90.4922 22.1334 88.058 19.023 85.2181C16.1831 82.5135 15.7775 78.8622 14.5604 75.211C13.6137 72.5063 12.8023 67.6379 9.55675 66.6913C7.2578 66.0152 1.71329 67.9084 0.360969 69.9369C-1.53228 72.7768 4.55316 75.6166 6.31118 76.8337C9.82722 79.1327 13.0728 81.5669 16.1831 84.4068C19.2935 87.1114 22.539 89.5456 25.7846 92.2502C27.2722 93.4673 28.6245 94.9549 29.4359 96.7129C29.4359 98.8766 29.7064 101.04 29.7064 103.204C29.7064 103.475 30.112 103.745 30.3825 103.61C30.3825 103.61 30.3825 103.61 30.5178 103.474C30.653 103.339 30.7882 103.069 30.653 102.798C30.653 101.176 30.5177 99.5528 30.3825 97.93C30.3825 96.9834 30.5178 96.172 30.7882 95.3606C31.5996 93.873 33.8986 92.2502 35.1156 91.0331C37.8203 88.3285 40.3897 85.7591 43.6353 83.7306C46.6104 81.8373 59.187 76.0223 54.3186 71.4244C52.4254 69.5312 48.5037 67.7732 45.799 68.4493C42.6887 69.2607 42.0125 72.6415 41.4716 75.4814C40.6602 79.4032 40.3897 82.6487 37.9555 85.8943C35.6566 89.0046 33.3576 91.8445 30.3825 94.2787C29.9768 90.357 28.7598 85.8943 30.9235 82.3783C33.4929 78.3213 36.1975 74.3996 38.3613 70.2074C40.2545 66.5561 41.6068 62.6344 43.6353 58.9831C45.6638 55.3318 48.7741 52.4919 51.3435 49.2464C53.372 46.8122 56.7528 42.7552 55.2653 39.3744C54.3187 37.0755 49.5855 34.7765 47.2866 36.2641C45.9342 37.2107 45.799 40.0506 45.5285 41.5381C45.1229 43.7018 44.7172 45.8656 44.3115 48.1645C43.5001 52.3567 42.9591 56.4137 41.4716 60.4706C38.4965 68.3141 33.8986 75.3462 29.4359 82.243C29.1654 81.2964 29.0302 80.0793 29.0302 78.8622C28.895 76.1576 29.1655 75.0757 30.2473 72.6415C31.0587 70.6131 32.5462 67.097 33.8986 65.4742C34.71 64.5276 35.7918 63.8514 36.6032 63.0401C36.7384 62.9048 36.7385 62.7696 36.8737 62.7696C38.6317 60.4706 40.9306 56.9546 37.1441 55.467C32.6815 53.709 32.0053 57.766 32.0053 61.1468C31.8701 62.3639 31.7349 63.7162 31.5996 64.9333ZM50.3969 47.894C49.856 48.7054 49.1798 49.5168 48.5037 50.193C47.8275 50.8691 46.34 52.6272 45.6638 51.951C44.7172 51.1396 46.0695 45.8656 46.4752 42.4848C46.7457 39.7801 47.1513 36.3993 50.3969 36.9402C56.7528 38.1573 53.5073 43.7018 50.3969 47.894ZM47.0161 29.0967C46.2047 30.8548 44.4467 34.3708 43.3648 35.4527C42.8239 35.9936 42.1477 36.5345 41.6068 36.1288C41.2011 35.7231 41.2011 35.047 41.2011 34.6413C41.3363 33.1537 41.2011 31.6662 41.3363 30.1786C41.4716 29.7729 41.4716 29.3672 41.6068 29.0967C42.0125 27.0683 42.1477 23.5522 44.8524 23.5522C48.2332 23.417 47.9627 26.933 47.0161 29.0967ZM34.3043 27.474C34.4395 26.6626 34.4395 25.5807 34.9804 24.9046C35.5214 24.3636 37.0089 24.6341 37.6851 25.175C38.4965 25.9864 37.8203 27.2035 37.1441 28.1501C36.7384 29.0968 35.6566 30.7195 34.5747 29.232C34.3043 28.6911 34.1691 28.0149 34.3043 27.474ZM39.5783 12.7337C39.4431 12.8689 39.4431 12.8689 39.3079 13.0041C39.0374 13.4098 38.7669 13.8155 38.4965 14.086C37.5498 15.0326 36.3328 14.8974 35.5214 14.2212C34.169 13.0041 35.5214 10.2995 35.927 8.67668C36.1975 7.73006 36.468 6.78342 36.7384 5.8368C37.4146 3.40262 37.4146 0.697969 40.3897 2.05029C45.9343 4.75494 42.6887 9.21761 39.5783 12.7337ZM29.1654 16.5202C28.895 17.7373 28.7597 20.3067 27.8131 21.3885C27.6779 21.5237 27.5427 21.659 27.4074 21.659C27.137 21.5237 27.0017 21.2533 26.7313 21.118C24.838 19.36 24.9732 17.4668 26.0551 16.3849C26.3256 15.9792 28.2188 14.7621 29.0302 15.1678C29.1654 15.5735 29.1654 16.1145 29.1654 16.5202ZM16.1831 10.8404C16.0479 10.029 15.9127 8.81191 16.4536 8.27098C16.7241 8.00052 17.1298 7.86529 17.8059 8.00052C19.5639 8.13576 21.4572 8.54146 22.2686 9.75855C23.7561 11.787 21.9981 15.5735 21.322 17.602C20.9163 18.9543 20.3753 20.5771 18.6173 20.0362C17.1298 19.6305 16.9945 18.0077 16.8593 16.7906C16.5888 14.8974 16.4536 12.8689 16.1831 10.8404ZM11.7205 23.2818C11.8557 24.0932 12.2614 25.716 11.7205 26.2569C11.3148 26.7978 10.2329 26.5273 9.69199 26.1216C9.42153 25.8512 8.88058 25.0398 8.74535 24.7693C6.58163 22.0647 4.82364 19.0896 3.74178 15.844C3.47131 15.1678 3.20084 14.4917 3.60654 13.9507C3.60654 13.9507 3.60654 13.9507 3.74178 13.8155C4.14747 13.4098 5.77027 13.1394 7.25782 14.4917C7.52829 14.7621 7.79875 14.8974 7.93399 15.1678C8.74538 15.9792 9.2863 16.9259 9.82723 18.1429C10.5034 19.7657 11.3148 21.5238 11.7205 23.2818ZM24.7028 57.3603C24.2971 58.5774 24.5676 59.9297 23.3505 61.282C22.5391 62.2287 21.4572 62.2287 20.9163 61.6877C20.6458 61.4173 20.2401 60.8763 20.1049 60.7411L19.5639 59.6592C18.8878 57.9012 16.7241 53.709 18.6173 52.3567C20.2401 51.2749 23.8914 51.8158 24.7028 53.709C24.9732 54.6557 24.9732 56.008 24.7028 57.3603ZM34.3043 56.008C35.2509 55.467 37.2794 56.008 37.8203 56.9546C38.6317 58.4422 36.6032 60.4706 35.927 61.5525C32.2758 65.6095 32.0053 57.2251 34.3043 56.008ZM11.7205 50.0577C11.7205 51.2748 11.5852 53.0329 10.7738 53.9795C10.0977 54.6557 9.15107 55.0614 8.47491 54.3852C7.39305 53.4386 6.85213 51.5453 6.58166 50.193C6.04073 48.8407 5.63504 47.3531 5.22934 45.8656C4.95888 44.9189 4.14747 42.8904 4.41794 41.9438C4.82364 40.4563 5.90547 40.7267 7.39302 40.7267C8.74535 40.7267 10.6386 40.321 11.5852 41.4029C12.3966 42.3495 11.991 44.1075 11.991 45.3246C11.8557 46.8122 11.7205 48.435 11.7205 50.0577ZM2.52469 71.8301C2.119 71.2892 1.84852 70.6131 2.25421 70.0721C2.38945 69.9369 2.38946 69.9369 2.52469 69.8017C4.68841 68.5846 7.52827 66.9618 9.69199 68.1789C10.9091 68.855 11.45 70.3426 11.8557 71.4244C12.5319 72.912 13.4785 74.67 13.749 76.1576C13.8842 77.2394 13.749 78.727 12.2614 78.727C11.45 78.727 9.69199 76.969 9.01583 76.5633C6.85211 75.211 4.55318 73.5882 2.52469 71.8301ZM46.4752 80.2145C45.5286 80.6202 42.9591 82.3783 42.283 81.7021C41.6068 81.1612 42.4182 72.6415 44.4467 70.3426C45.2581 69.396 45.9342 69.396 46.8809 69.396C48.7741 69.396 50.8026 70.4778 52.1549 71.4244C55.5357 73.7234 53.1016 75.211 50.5322 77.2394C49.3151 78.1861 47.8275 79.5384 46.4752 80.2145Z" fill="#CEA57F"/>
</svg>
