<svg width="76" height="99" viewBox="0 0 76 99" fill="none" xmlns="http://www.w3.org/2000/svg">
<path d="M74.6166 8.72147C73.7997 5.70136 71.6214 5.83866 69.3069 7.62327C64.5418 11.3298 61.2743 16.9581 58.6875 22.4492C56.2369 27.5285 54.6032 33.1569 54.6032 38.9226C54.6032 40.4326 54.7393 41.9426 54.6032 43.4527C54.3309 44.9628 53.6502 46.3355 53.1056 47.8456C52.0164 50.5912 51.1995 53.474 49.9742 56.2196C49.1573 52.2385 48.0682 48.532 46.4344 44.8255C45.6175 43.0409 44.8007 41.2563 43.5754 39.7462C42.4862 38.3735 41.397 37.5498 42.35 35.7652C43.1669 34.1179 44.3922 32.8823 45.2091 31.235C45.8898 29.7249 46.2983 28.0776 46.4344 26.5676C46.7067 23.1356 45.8898 19.4291 44.6645 16.1345C42.35 10.3688 37.8572 5.42681 32.4114 2.54398C26.421 -0.61341 18.7968 -0.476141 12.3979 1.03391C9.26659 1.85758 5.86294 2.95582 3.14002 4.74043C1.50627 5.70137 0.00866294 7.21141 0.00866294 9.27057C-0.127483 11.7416 1.37012 14.2126 2.45929 16.409C3.95689 19.2919 5.4545 22.1747 7.36054 24.9202C14.0317 34.9415 24.1065 43.0409 36.6319 40.0208C39.6271 39.3344 41.6693 40.4326 43.1669 43.1782C44.6645 46.1983 45.7537 49.9048 46.4344 53.1994C47.1151 56.9059 47.3874 60.6124 47.7959 64.3189C48.2043 67.7509 48.7489 71.3201 48.4766 74.752C43.1669 68.7118 37.1765 63.7698 29.5523 61.1616C25.8764 59.9261 22.0643 59.1024 18.2522 58.8278C14.8486 58.5533 10.7642 58.416 7.49669 59.5142C5.04606 60.3379 5.31836 62.2598 5.99908 64.4562C7.2244 68.1627 9.26659 71.7319 11.4449 74.8893C15.6654 80.7923 21.792 85.0478 29.0077 86.0088C32.4114 86.5579 35.9512 86.1461 39.2187 85.1851C41.1247 84.636 42.8946 83.8124 44.6645 82.8514C46.1621 82.0277 47.2513 80.655 48.6128 79.5568C49.0212 79.9686 48.885 81.4786 48.885 82.0277C49.0212 83.126 49.0212 84.0869 49.1573 85.1851C49.2935 87.107 49.4296 89.1662 49.5658 91.0881C49.7019 92.5981 49.0212 99.8738 51.8803 98.9129C53.2417 98.5011 53.1056 97.4028 52.8333 96.3046C52.4248 94.52 51.8803 92.7354 51.7441 90.8135C51.4718 87.107 51.4718 83.2632 51.1995 79.4195C50.7911 72.8301 50.5188 66.5154 51.608 59.926C52.1525 56.7686 53.1056 53.6113 54.3309 50.5912C54.8755 49.0811 55.42 47.571 55.9646 46.1983C56.3731 45.2373 56.5092 43.7273 57.5984 43.3155C58.9598 42.6291 61.1382 42.9036 62.6358 42.6291C63.9972 42.3545 65.2225 41.9426 66.4479 41.3935C68.7623 40.2953 70.8045 38.3734 72.166 36.177C75.7058 30.9605 76.1142 24.2338 75.9781 18.1936C75.4335 15.0362 75.4335 11.6043 74.6166 8.72147ZM37.4488 24.6457C37.0403 25.8812 36.3596 28.764 34.9982 29.0385C33.6367 29.3131 30.2331 24.6457 29.1439 23.4102C29.0077 22.9984 29.0077 22.5865 29.1439 21.9001C29.4162 20.6646 29.6885 19.4291 29.9608 18.0563C30.3692 15.4481 30.2331 12.7025 30.0969 10.0942C29.9608 7.62325 29.28 5.01497 29.1439 2.54398C33.7729 3.36764 39.7633 7.76053 39.7633 12.8398C39.7633 16.9581 38.6741 20.8019 37.4488 24.6457ZM19.3414 1.30849C19.7498 0.759374 21.9282 1.03391 22.4727 1.03391C24.1065 1.03391 27.2378 1.17122 27.9186 2.81855C28.7354 4.87771 28.7354 7.62323 29.0077 9.81968C29.1439 12.0161 29.28 14.3499 29.1439 16.5463C29.0077 18.1936 29.1439 21.0765 27.9186 22.4492C26.2848 21.0765 23.5619 19.5664 22.4727 17.6445C21.9282 16.6836 22.2004 15.4481 22.2004 14.3499C22.2004 13.2516 22.0643 12.0161 21.9282 10.9179C21.5197 8.5842 20.839 6.25047 20.0221 3.91675C19.7498 3.36764 18.7968 1.8576 19.3414 1.30849ZM15.3931 1.44577C15.9377 1.44577 16.7546 1.17121 17.163 1.30849C18.1161 1.58304 18.1161 1.99485 18.5245 2.95579C19.0691 4.32857 19.6137 5.83864 20.0221 7.34869C20.839 10.5061 21.3836 13.6635 21.3836 16.8208C15.1209 12.8398 8.85815 9.68242 2.05085 6.79959C5.18221 3.36765 11.0365 1.99488 15.3931 1.44577ZM7.76898 22.8611C5.72679 21.351 4.50148 18.0564 3.41231 15.7226C2.187 13.2516 0.553245 10.2315 1.09783 7.34869C9.26658 10.2315 17.0269 14.4871 23.5619 20.1155C20.7028 21.6256 17.5715 22.5865 14.4401 23.1356C12.2618 23.6847 9.67502 24.3711 7.76898 22.8611ZM12.5341 29.9995C11.0365 28.3522 9.67502 26.5676 8.58585 24.6457C11.0365 24.3711 13.4871 24.5084 15.8016 23.822C18.1161 23.1356 20.2944 22.1747 22.6089 21.4883C24.5149 20.9392 25.3318 21.9001 26.6933 23.2729C27.5101 24.2339 28.4632 25.0575 29.4162 26.0185C29.8246 26.4303 30.6415 27.1167 31.0499 27.6658C31.4584 28.3522 31.5945 28.0776 31.0499 28.764C29.8246 30.4114 26.9656 31.0977 25.0595 31.6469C22.6089 32.3332 20.1583 32.8823 17.7076 32.8823C15.257 32.7451 14.1678 31.6468 12.5341 29.9995ZM16.7546 33.706C21.5197 32.7451 26.5571 32.0587 30.9138 29.8622C32.6837 28.9013 33.2283 30.274 34.3174 31.7841C35.815 33.706 37.3126 35.6279 38.4018 37.8244C32.2752 41.2563 21.3836 39.1971 16.7546 33.706ZM39.491 36.3143C38.6741 35.0788 37.7211 33.9806 36.9042 32.7451C36.7681 32.4705 36.4958 32.1959 36.3596 32.0587C36.0873 30.9605 36.0873 29.8622 36.3596 28.764C36.3596 28.6267 36.4958 28.4894 36.4958 28.3522C36.6319 28.0776 36.7681 27.8031 36.7681 27.5285C37.0403 26.9794 37.1765 26.5676 37.4488 26.0185C39.491 21.4883 40.7163 16.8209 40.444 11.7416C46.026 19.4291 46.2983 29.4504 39.491 36.3143ZM41.8055 69.9473C43.7115 71.8692 45.6175 73.5165 46.8428 75.9875C45.4814 75.9875 43.9838 75.5757 43.1669 74.3402C42.4862 73.5165 41.6693 71.1828 41.8055 69.9473ZM39.491 68.4373C40.9886 70.3591 41.6693 72.8301 42.35 75.1638C40.9886 74.8893 39.2187 74.8893 37.9934 74.3402C36.9042 73.7911 36.4958 72.4183 35.9512 71.3201C35.5427 70.3591 32.956 63.7698 32.6837 63.7698C34.9982 65.0053 37.8572 66.2408 39.491 68.4373ZM31.7307 64.3189C33.6367 67.2018 34.862 70.3592 35.9512 73.5165C34.1813 73.242 32.4114 72.8301 30.7776 72.281C29.5523 71.8692 27.374 71.5946 26.5571 70.4964C25.6041 69.1236 25.1957 66.9272 24.6511 65.4171C24.1065 63.7698 23.4258 62.1225 22.8812 60.4752C25.8764 60.887 30.2331 61.8479 31.7307 64.3189ZM20.839 60.2006C21.792 60.7497 22.3366 61.8479 22.745 62.6716C24.1065 65.0053 25.0595 67.6136 25.4679 70.2218C23.6981 69.9473 20.5667 68.9864 19.4775 67.6136C18.7968 66.7899 18.5245 65.0053 18.2522 64.0443C17.7076 62.6716 17.2992 61.1616 16.7546 59.7888C18.1161 59.7888 19.7498 59.6515 20.839 60.2006ZM11.5811 59.7888C12.6702 59.7888 14.304 59.3769 15.257 59.926C17.0269 60.887 18.1161 65.1426 18.2522 66.9272C16.21 66.5154 14.0317 65.2799 12.2618 64.1816C10.628 63.2207 8.44971 61.9852 7.22439 60.3379C8.58585 60.0633 10.0835 59.7888 11.5811 59.7888ZM9.81117 70.0846C8.58586 69.2609 8.17742 67.2018 7.49669 65.9663C6.81596 64.4562 6.40752 63.0834 5.99908 61.5734C10.0835 63.9071 14.1678 66.3781 18.2522 68.7118C16.4823 69.8101 11.8534 71.4574 9.81117 70.0846ZM10.3558 71.4574C13.0787 71.0455 15.6654 70.2218 18.3884 69.5355C20.7028 68.9864 23.1535 70.6337 25.1957 71.5946C24.7872 72.0065 24.3788 72.4183 23.8342 72.6929C22.745 73.3793 21.6559 74.2029 20.2944 74.6147C20.1583 74.752 19.886 74.752 19.7498 74.752C19.6137 74.752 19.4775 74.8893 19.3414 74.8893C17.7076 75.3012 16.21 75.4384 14.5763 75.713C14.4401 75.713 14.1678 75.713 14.0317 75.5757C12.2618 75.1639 11.3088 72.8302 10.3558 71.4574ZM21.6559 82.3023C20.1583 81.6159 18.7968 80.7922 17.5715 79.8313C16.3462 78.8703 15.3931 77.3603 14.304 76.5366C14.9847 76.3994 15.5293 76.2621 16.21 76.1248C19.6137 76.1248 23.6981 74.6147 25.7402 72.281C26.2848 72.1437 26.9655 72.1437 27.6463 72.281C29.5523 72.8301 31.3222 73.5165 33.0921 74.0656C33.909 74.3402 35.6789 74.6147 35.9512 75.3011C36.0873 75.8503 35.4066 76.9485 35.1343 77.4976C34.1813 79.0076 32.8198 80.1059 31.4584 81.0668C30.0969 82.0278 28.1909 83.2632 26.421 83.5378C24.7872 83.8124 23.1535 82.9887 21.6559 82.3023ZM38.6741 83.6751C37.1765 84.3615 35.4066 84.4988 33.909 84.4988C31.5945 84.636 29.28 84.7733 27.1017 84.0869C29.6885 82.8514 32.5475 81.6159 34.5897 79.4195C35.5427 78.4585 35.9512 77.0857 36.7681 75.9875C37.0403 75.8503 37.1765 75.713 37.3126 75.4384C37.3126 75.4384 37.3126 75.4384 37.4488 75.3011C37.4488 75.3011 37.5849 75.3011 37.5849 75.1638C37.7211 75.1638 37.7211 75.1638 37.8572 75.0266L39.0825 75.3011C39.8994 75.5757 40.8524 75.713 41.6693 75.9875C41.6693 78.8704 41.2609 82.3023 38.6741 83.6751ZM41.1247 82.8514C41.397 81.7532 41.6693 80.655 41.9416 79.694C42.0777 79.0077 42.2139 77.4976 42.6223 76.9485C43.1669 76.2621 46.8429 77.223 48.0682 77.3603C46.4344 79.8313 43.9838 81.6159 41.1247 82.8514ZM70.3961 8.99604C69.8515 11.1925 69.1708 13.3889 68.6262 15.7226C66.1756 12.7025 66.4479 11.467 70.3961 8.99604ZM63.0442 18.0563C63.1804 16.1344 65.0864 14.2126 66.1756 12.7025C66.7202 14.4871 67.9455 16.409 67.8093 18.3309C67.6732 20.5273 66.4479 22.7238 65.631 24.783C64.5418 22.9984 62.9081 20.2528 63.0442 18.0563ZM59.9129 23.9593C59.7767 22.1747 61.1382 20.3901 61.9551 19.0173C62.3635 20.1155 62.7719 21.0764 63.1804 22.1747C63.5888 23.2729 64.4057 24.2339 64.678 25.3321C65.2226 27.3912 63.7249 29.0386 62.7719 30.6859C61.5466 28.9013 60.1852 26.1557 59.9129 23.9593ZM56.1008 41.3935C55.8285 35.7652 56.7815 30.1368 59.096 25.0575C59.9129 26.7048 60.5936 28.2149 61.4105 29.8622C62.0912 31.3723 62.3635 32.0587 61.6828 33.5687C60.1852 36.3143 58.2791 39.0598 56.1008 41.3935ZM57.1899 41.8054C58.0068 40.5699 58.9598 38.5107 60.4574 38.3735C62.2273 38.0989 64.5418 38.7853 66.3117 38.9226C63.7249 40.8444 60.4574 41.3936 57.1899 41.8054ZM69.7154 30.5486L72.5744 29.5877C72.166 32.196 70.8045 35.3534 68.6262 37.138C66.584 38.7853 62.4996 38.3734 60.3213 37.4125C61.5466 35.4906 62.7719 33.5687 63.9972 31.6469C64.2695 31.5096 64.5418 31.3723 64.8141 31.235C65.7671 30.9604 66.3117 31.3723 68.0816 30.9605C68.6262 30.8232 69.1708 30.6859 69.7154 30.5486ZM68.4901 29.8622C67.6732 29.9995 65.4949 30.4113 65.3587 29.3131C65.9033 28.0776 66.3117 26.7049 66.7202 25.3321C67.1286 24.0966 67.4009 22.7238 68.2178 21.6256C68.8985 20.3901 70.8045 20.8019 73.2552 19.2919C73.3913 19.2919 73.5275 19.1546 73.6636 19.1546C73.9359 20.8019 73.9359 22.4493 73.7997 24.0966C73.6636 25.1948 73.6636 27.254 73.119 28.2149C72.3021 29.3131 70.3961 29.7249 68.4901 29.8622ZM73.7997 16.1345C73.9359 18.3309 71.0768 19.9782 68.8985 19.841C69.9877 15.7226 71.0768 11.6043 72.166 7.62327C73.6636 9.95699 73.6636 13.3889 73.7997 16.1345Z" fill="#CEA57F"/>
</svg>
