<svg width="71" height="102" viewBox="0 0 71 102" fill="none" xmlns="http://www.w3.org/2000/svg">
<path d="M32.3933 29.1336C32.2648 29.7762 32.2648 30.5473 32.1363 31.1898C32.1363 31.0613 29.9523 27.3345 27.8968 24.7642C26.6121 23.2221 25.3274 21.8084 23.7858 20.3948C22.2442 18.9811 20.7025 17.8245 19.0324 16.5394C17.1054 15.1258 18.0047 14.3547 17.7477 12.17C17.4908 8.95719 15.0498 7.02951 12.095 6.51547C10.2965 6.25844 0.404279 5.23034 0.0188698 7.02951C-0.23807 8.31463 2.20285 11.0134 2.8452 12.0415C3.87296 13.8406 4.90072 15.7683 6.31389 17.182C9.26869 20.2663 12.8659 19.8807 16.0776 17.3105C17.2338 16.2824 17.6192 16.4109 18.7755 17.439C19.5463 18.0816 20.3171 18.7241 20.9595 19.3667C22.2442 20.6518 23.5289 21.9369 24.6851 23.3506C25.3274 23.9931 25.8413 24.7642 26.3552 25.4068C27.2545 25.9208 31.3655 31.5753 31.3655 32.6034C31.3655 33.503 31.1086 34.7882 30.9801 35.5592C30.7232 36.8443 30.2093 38.258 29.9524 39.4146C29.4385 41.5993 28.9246 43.9125 28.4107 46.0972C27.383 50.4666 26.6121 54.9646 25.7128 59.334C23.6573 57.6633 21.6018 55.9926 19.5463 54.4505C18.0046 53.2939 15.9491 52.2658 15.4353 50.2096C15.0498 48.2819 15.0499 46.6113 13.6367 44.9406C12.2235 43.3985 10.0395 42.2419 8.24093 41.3423C6.44235 40.5712 0.404279 37.7439 1.30357 41.8563C1.94592 45.1976 3.61602 49.9526 6.31389 52.2658C9.01175 54.579 11.4527 53.5509 14.536 53.0369C16.5915 52.6514 17.6192 54.322 19.0324 55.6071C20.7025 57.1493 22.6296 58.5629 24.1712 60.3621C26.7406 63.1893 25.3274 68.4583 25.8413 72.0567C26.2267 75.655 27.383 79.1248 29.31 82.0806C30.4662 83.7513 31.8794 84.7794 33.1641 86.193C34.3203 87.6067 34.4488 88.6347 34.1919 90.4339C34.0634 92.7471 33.8064 95.0604 33.8064 97.3736C33.8064 98.9157 34.0634 100.201 34.3203 101.486C34.3203 101.614 34.4488 101.743 34.4488 101.872C34.5773 101.872 34.5773 101.871 34.7057 102C34.8342 101.871 34.9627 101.872 35.0911 101.872C35.0911 100.586 34.7057 98.4017 34.7057 97.7591C34.5773 95.9599 34.7057 94.9318 36.1189 93.6467C38.5598 91.3335 40.4869 89.1488 41.7716 85.936C42.9278 82.7232 42.7993 79.3819 45.3687 76.8116C47.8097 74.4984 49.3513 72.0567 50.1221 68.8439C50.3791 67.9443 51.1499 65.2455 50.1221 64.603C48.9659 63.9604 47.1673 65.8881 46.3965 66.5307C44.084 68.4584 41.9 70.643 41.7716 73.8558C41.6431 75.655 42.4139 77.1972 42.2854 78.9963C42.157 80.7955 41.3862 82.5947 40.7438 84.2653C39.5876 87.4781 38.1744 90.8195 35.0911 92.4901C35.4766 87.2211 36.8897 82.0806 37.9175 76.9401C38.4314 74.3699 38.8168 71.6711 39.5876 69.2294C40.2299 66.7877 41.7716 64.4744 42.9278 62.2897C43.9556 60.3621 44.9833 58.3059 46.0111 56.3782C46.9104 54.579 47.6812 54.065 49.4798 53.1654C51.1499 52.2658 52.563 51.1092 53.8477 49.6956C54.747 48.6675 55.7748 46.7398 56.931 46.2257C58.2157 45.5832 60.1428 46.4828 61.5559 46.3542C63.0976 46.2257 64.6392 45.7117 65.9239 44.8121C69.1357 42.4989 70.035 38.001 70.8058 34.4026C71.0627 33.1175 71.3196 31.8324 69.778 31.4468C68.2364 31.0613 65.9239 31.9609 64.3823 32.4749C61.5559 33.246 58.4726 34.5311 56.8025 37.1013C55.004 39.9286 56.1602 42.8844 55.1324 45.7117C53.9762 48.9245 50.5075 51.4947 47.5527 52.7799C49.2228 47.2538 50.3791 41.5993 50.7645 35.8162C50.8929 32.989 50.7645 30.1617 50.5075 27.3345C50.3791 25.9208 50.1221 24.5072 49.8652 23.0935V22.965C49.8652 22.8365 49.8652 22.708 49.7367 22.5795C49.8652 21.6799 49.8652 21.0373 50.5075 20.3948C52.1776 19.7522 53.7193 19.4952 55.2609 18.4671C56.6741 17.439 57.7018 16.0254 58.4727 14.4832C59.5004 12.427 59.8858 10.1138 60.1428 7.80059C60.2712 6.51547 61.0421 3.17417 59.7574 2.27458C58.6011 1.37499 55.9033 3.17414 54.747 3.8167C52.9485 4.71629 51.1499 5.87291 49.6082 7.15803C46.6534 9.72827 44.084 13.5837 44.9833 17.696C45.4972 19.8807 47.2958 19.3667 48.3235 21.0373C48.9659 22.3224 48.8374 24.3787 48.9659 25.6638C49.3513 30.2902 49.3513 34.9167 48.8374 39.5431C48.3235 44.041 47.2958 48.539 45.7541 52.9084C44.341 56.8922 42.6709 61.3902 39.973 64.603C39.973 61.5187 39.973 58.3059 39.716 55.2216C39.3306 51.8803 39.8445 49.6956 40.6154 46.4828C41.2577 43.9125 40.7438 41.4708 43.0563 39.8001C45.2403 38.3865 46.1395 36.8443 45.6257 34.1456C45.3687 32.6034 44.2125 27.2059 42.2854 27.2059C40.3584 27.0774 37.5321 32.2179 37.0182 33.6315C35.9904 36.3303 37.2751 38.3865 39.0737 40.3142C41.0007 42.4989 39.7161 45.5832 39.3307 48.2819C37.9175 44.6836 36.3758 41.0853 34.9627 37.4869C34.3203 36.0733 33.5495 34.4026 33.2926 32.8605C33.0356 31.3183 33.5495 29.6477 33.9349 28.234C34.3203 26.4348 34.7057 24.7642 34.9627 22.965C35.0911 22.1939 35.2196 21.2944 35.3481 20.5233C35.7335 19.3667 35.9904 18.0816 36.2474 16.7964C37.0182 16.925 37.6605 16.7964 38.4314 16.6679C42.2854 15.6398 42.5424 12.17 42.6709 8.95719C42.2854 7.15802 41.9 -0.93824 39.0737 0.0898572C37.2751 0.86093 35.3481 3.55967 34.0634 4.9733C32.6502 6.51545 31.237 8.0576 30.8516 10.2423C30.4662 13.1981 32.5217 15.7683 35.0911 16.5394C34.8342 17.439 34.7057 18.3386 34.4488 19.3667C34.4488 19.4952 34.4488 19.4952 34.4488 19.6237C34.3203 19.8807 34.3203 20.1377 34.3203 20.3948C33.9349 21.6799 33.8064 23.222 33.5495 24.2501C33.2926 25.7923 32.9072 27.463 32.3933 29.1336ZM48.1951 19.1096C44.341 18.0815 47.1673 12.0415 48.7089 9.98531C51.1499 6.90102 54.8755 5.35887 58.3442 3.5597C59.3719 7.15804 58.8581 11.2704 56.8025 14.4832C55.1324 17.0535 51.5353 20.0092 48.1951 19.1096ZM38.6883 34.0171C39.4591 31.8324 41.0008 30.0332 42.7993 28.7481C43.4417 30.9328 44.9833 33.8886 44.4694 36.0733C44.084 37.6154 42.2855 40.0572 40.4869 39.4146C38.4314 38.6435 38.046 35.6877 38.6883 34.0171ZM34.9627 15.3828C31.6225 13.8407 31.6224 10.4993 33.2926 7.80059C34.3203 6.12993 38.0459 1.24645 40.1015 1.7605C40.4869 4.84479 41.7716 9.0857 41.1292 12.17C40.7438 14.6117 37.4036 16.4109 34.9627 15.3828ZM15.9491 15.7684C14.536 18.3386 10.6819 18.8526 8.36941 17.439C6.82777 16.4109 5.92849 14.7403 4.90073 13.1981C3.7445 11.2704 2.4598 9.47123 1.30357 7.54355C5.02919 7.80057 10.168 7.02952 13.6367 8.57167C16.463 9.72828 17.3623 13.1981 15.9491 15.7684ZM13.8936 52.0088C11.9666 54.7075 7.34165 51.8802 6.05695 49.9526C4.38684 47.5108 3.48755 44.4266 2.8452 41.4708C5.92848 41.9848 9.26871 43.1415 11.7096 45.3262C12.9943 46.6113 15.3068 50.0811 13.8936 52.0088ZM49.2228 66.5307C48.1951 71.7997 46.7819 74.4984 43.6986 76.5546C42.157 72.5707 43.5702 69.872 49.2228 66.5307ZM33.8064 84.5224V85.4219C30.7232 83.6228 29.0531 80.41 27.8968 76.9401C26.7406 73.3418 25.5844 67.6873 27.126 64.2174C31.494 69.872 33.2926 75.7835 33.678 82.5947C33.9349 83.2373 33.8064 83.8798 33.8064 84.5224ZM32.0079 36.2018C32.0079 35.6877 32.2648 35.0452 32.5217 34.5311C33.2926 35.8162 33.8064 37.4869 34.3203 38.9006C37.4036 45.1976 38.4314 52.7798 38.6883 59.591C38.9452 68.0728 37.789 77.5827 34.9627 85.5505C34.9627 84.2653 34.9627 82.9802 34.9627 81.6951C35.2196 78.6108 34.5773 75.5265 33.5495 72.5707C32.9072 70.643 32.0079 68.8439 31.1086 67.1732C30.0808 65.3741 28.4107 63.9604 27.7684 62.0327C26.4837 58.3059 28.4107 53.5509 29.1815 49.9526C30.0808 45.3261 30.9801 40.8282 32.0079 36.2018ZM66.4378 43.0129C64.6392 44.8121 60.3997 46.6112 58.0872 44.8121C55.5178 42.8844 57.188 38.1294 59.115 36.4588C61.9413 33.8885 66.1808 33.1175 69.778 32.8605C69.5211 36.0733 69.0072 40.5712 66.4378 43.0129Z" fill="#CEA57F"/>
</svg>
