<svg width="10" height="17" viewBox="0 0 10 17" fill="none" xmlns="http://www.w3.org/2000/svg">
<path d="M8.84496 0.00353713L6.64044 0C4.16374 0 2.56318 1.64211 2.56318 4.18372V6.1127H0.346639C0.155104 6.1127 0 6.26798 0 6.45951V9.25438C0 9.44592 0.15528 9.60102 0.346639 9.60102H2.56318V16.6534C2.56318 16.8449 2.71829 17 2.90982 17H5.80178C5.99332 17 6.14842 16.8447 6.14842 16.6534V9.60102H8.74008C8.93162 9.60102 9.08672 9.44592 9.08672 9.25438L9.08778 6.45951C9.08778 6.36755 9.05117 6.27948 8.98627 6.21439C8.92136 6.14931 8.83293 6.1127 8.74097 6.1127H6.14842V4.47748C6.14842 3.69153 6.33572 3.29254 7.35954 3.29254L8.8446 3.29201C9.03596 3.29201 9.19107 3.13673 9.19107 2.94537V0.350176C9.19107 0.158994 9.03614 0.00389085 8.84496 0.00353713Z" fill="#CEA57F"/>
</svg>
