<?xml version="1.0" encoding="utf-8"?><svg xmlns="http://www.w3.org/2000/svg" xmlns:xlink="http://www.w3.org/1999/xlink"><symbol viewBox="0 0 71 102" id="article15" xmlns="http://www.w3.org/2000/svg"><path d="M32.393 29.134c-.128.642-.128 1.413-.257 2.056 0-.129-2.184-3.856-4.24-6.426-1.284-1.542-2.569-2.956-4.11-4.37-1.542-1.413-3.084-2.57-4.754-3.855-1.927-1.413-1.027-2.184-1.284-4.369-.257-3.213-2.698-5.14-5.653-5.655C10.296 6.258.405 5.23.019 7.03c-.257 1.285 2.184 3.983 2.826 5.011 1.028 1.8 2.056 3.727 3.469 5.141 2.955 3.084 6.552 2.699 9.764.129 1.156-1.029 1.541-.9 2.698.128.77.643 1.541 1.285 2.183 1.928 1.285 1.285 2.57 2.57 3.726 3.984.642.642 1.156 1.413 1.67 2.056.9.514 5.01 6.168 5.01 7.196 0 .9-.256 2.185-.385 2.956-.257 1.285-.77 2.699-1.028 3.856-.514 2.184-1.027 4.498-1.541 6.682-1.028 4.37-1.799 8.868-2.698 13.237-2.056-1.67-4.111-3.341-6.167-4.884-1.541-1.156-3.597-2.184-4.11-4.24-.386-1.928-.386-3.599-1.8-5.27-1.412-1.541-3.596-2.698-5.395-3.598-1.799-.77-7.837-3.598-6.937.514.642 3.342 2.312 8.097 5.01 10.41 2.698 2.313 5.139 1.285 8.222.77 2.056-.385 3.083 1.286 4.496 2.571 1.67 1.542 3.598 2.956 5.14 4.755 2.569 2.827 1.155 8.096 1.67 11.695.385 3.598 1.541 7.068 3.468 10.024 1.156 1.67 2.57 2.698 3.854 4.112 1.156 1.414 1.285 2.442 1.028 4.24-.129 2.314-.386 4.627-.386 6.94 0 1.543.257 2.828.514 4.113 0 .128.129.257.129.386.128 0 .128-.001.257.128.128-.129.257-.128.385-.128 0-1.286-.385-3.47-.385-4.113-.129-1.8 0-2.827 1.413-4.112 2.44-2.314 4.368-4.498 5.653-7.711 1.156-3.213 1.027-6.554 3.597-9.124 2.44-2.314 3.982-4.755 4.753-7.968.257-.9 1.028-3.598 0-4.241-1.156-.643-2.955 1.285-3.725 1.928-2.313 1.927-4.497 4.112-4.625 7.325-.129 1.799.642 3.341.513 5.14-.128 1.8-.899 3.599-1.541 5.27-1.156 3.212-2.57 6.553-5.653 8.224.386-5.269 1.799-10.41 2.826-15.55.514-2.57.9-5.269 1.67-7.71.643-2.442 2.185-4.756 3.34-6.94 1.029-1.928 2.056-3.984 3.084-5.912.9-1.799 1.67-2.313 3.469-3.213 1.67-.9 3.083-2.056 4.368-3.47.899-1.028 1.927-2.955 3.083-3.47 1.285-.642 3.212.258 4.625.13 1.542-.13 3.083-.643 4.368-1.543 3.212-2.313 4.111-6.811 4.882-10.41.257-1.285.514-2.57-1.028-2.955-1.542-.386-3.854.514-5.396 1.028-2.826.771-5.91 2.056-7.58 4.626-1.798 2.828-.642 5.783-1.67 8.61-1.156 3.214-4.624 5.784-7.58 7.069 1.67-5.526 2.827-11.18 3.212-16.964.129-2.827 0-5.654-.257-8.482-.128-1.413-.385-2.827-.642-4.24v-.129c0-.128 0-.257-.128-.386.128-.9.128-1.542.77-2.184 1.67-.643 3.212-.9 4.754-1.928 1.413-1.028 2.44-2.442 3.212-3.984 1.027-2.056 1.413-4.37 1.67-6.682.128-1.286.9-4.627-.386-5.526-1.156-.9-3.854.9-5.01 1.542a27.125 27.125 0 00-5.139 3.341c-2.955 2.57-5.524 6.426-4.625 10.538.514 2.185 2.313 1.67 3.34 3.341.643 1.285.514 3.342.643 4.627.385 4.626.385 9.253-.129 13.88a61.055 61.055 0 01-3.083 13.364c-1.413 3.984-3.083 8.482-5.781 11.695 0-3.084 0-6.297-.257-9.381-.385-3.342.128-5.526.9-8.74.642-2.57.128-5.011 2.44-6.682 2.184-1.413 3.084-2.956 2.57-5.654-.257-1.543-1.413-6.94-3.34-6.94-1.928-.129-4.754 5.012-5.268 6.426-1.028 2.698.257 4.755 2.056 6.682 1.927 2.185.642 5.27.257 7.968-1.414-3.598-2.955-7.197-4.368-10.795-.643-1.414-1.413-3.084-1.67-4.627-.257-1.542.257-3.212.642-4.626.385-1.8.77-3.47 1.028-5.269.128-.771.257-1.67.385-2.442.386-1.156.642-2.441.9-3.727.77.129 1.413 0 2.183-.128 3.854-1.028 4.111-4.498 4.24-7.71-.386-1.8-.771-9.896-3.597-8.868-1.799.77-3.726 3.47-5.01 4.883-1.414 1.542-2.827 3.085-3.212 5.27-.386 2.955 1.67 5.525 4.24 6.296-.258.9-.386 1.8-.643 2.828v.257c-.129.257-.129.514-.129.77-.385 1.286-.514 2.828-.77 3.856a38.085 38.085 0 01-1.157 4.884zM48.195 19.11c-3.854-1.029-1.028-7.069.514-9.125 2.44-3.084 6.166-4.626 9.635-6.425 1.028 3.598.514 7.71-1.541 10.923-1.67 2.57-5.268 5.526-8.608 4.627zm-9.507 14.907c.771-2.185 2.313-3.984 4.111-5.269.643 2.185 2.184 5.14 1.67 7.325-.385 1.542-2.184 3.984-3.982 3.342-2.056-.771-2.441-3.727-1.799-5.398zm-3.725-18.634c-3.34-1.542-3.34-4.884-1.67-7.582 1.027-1.671 4.753-6.555 6.809-6.04.385 3.084 1.67 7.325 1.027 10.409-.385 2.442-3.725 4.24-6.166 3.213zm-19.014.385c-1.413 2.57-5.267 3.085-7.58 1.671-1.541-1.028-2.44-2.699-3.468-4.24C3.745 11.27 2.46 9.47 1.304 7.543c3.725.257 8.864-.514 12.333 1.028 2.826 1.156 3.725 4.626 2.312 7.196zm-2.055 36.24c-1.927 2.7-6.552-.128-7.837-2.055-1.67-2.442-2.57-5.526-3.212-8.482 3.083.514 6.424 1.67 8.865 3.855 1.284 1.285 3.597 4.755 2.184 6.683zm35.329 14.523c-1.028 5.269-2.441 7.967-5.524 10.024-1.542-3.984-.129-6.683 5.524-10.024zM33.806 84.522v.9c-3.083-1.8-4.753-5.012-5.91-8.482-1.155-3.598-2.312-9.253-.77-12.723 4.368 5.655 6.167 11.567 6.552 18.378.257.642.128 1.285.128 1.927zm-1.798-48.32c0-.514.257-1.157.514-1.67.77 1.284 1.284 2.955 1.798 4.369 3.084 6.297 4.111 13.879 4.368 20.69.257 8.482-.899 17.992-3.725 25.96v-3.856c.257-3.084-.386-6.168-1.413-9.124-.643-1.928-1.542-3.727-2.441-5.398-1.028-1.799-2.698-3.213-3.34-5.14-1.285-3.727.642-8.482 1.413-12.08.899-4.627 1.798-9.125 2.826-13.751zm34.43 6.81c-1.799 1.8-6.038 3.6-8.35 1.8-2.57-1.928-.9-6.683 1.027-8.353 2.826-2.57 7.066-3.342 10.663-3.599-.257 3.213-.77 7.711-3.34 10.153z"/></symbol><symbol viewBox="0 0 56 104" id="article21" xmlns="http://www.w3.org/2000/svg"><path d="M31.6 64.933c-.136 2.3-1.082 4.192-2.164 6.086l-.406.811c-.811-1.623-.676-3.516-.676-5.544-.135-2.164-.406-4.598-.27-6.897.135-2.029 1.487-3.11 2.84-4.463 1.487-1.623 2.84-3.516 4.056-5.41 2.435-3.786 5.004-7.302 7.709-10.818 2.299-3.11 6.22-7.573 6.49-11.495.136-2.704-2.84-5.95-5.814-5.138-2.975.946-2.975 7.573-3.246 10.007-.676 4.598-1.487 8.655-3.786 12.847-2.164 3.786-4.598 8.384-8.25 10.954-.405-1.217.136-2.975.136-4.192.135-1.353.135-2.84.135-4.193.135-2.299-.135-4.327 1.217-6.356 2.975-4.597 7.168-8.384 9.331-13.388.676-1.758.27-3.65-1.758-4.327-2.57-.811-3.516 1.623-3.786 3.651-.27 2.3.27 4.598-.406 6.762-.676 2.164-2.164 4.057-3.516 5.95 0-1.758.27-3.38.54-5.004 2.03-11.359 1.624-7.032 2.3-10.277.54-1.893 1.352-3.651 2.84-5.274 2.84-2.975 5.815-5.815 8.249-9.196 1.217-1.758 2.299-3.922 1.217-6.085C43.77 2.05 40.525-.25 38.496.022c-2.434.406-2.84 5.274-3.38 7.167-2.029 6.897-2.84 13.794-5.274 20.555.135-.405-.541-1.893-.677-2.434-.135-1.082.136-2.163.406-3.245.541-2.164 1.488-5.545.947-7.709-.812-2.975-6.086.677-6.356 2.84-.135 1.894 1.082 3.652 2.028 5.14 1.217 2.028 2.3 4.191 2.84 6.49.406 2.3 0 4.193-.405 6.491-.136.947-.406 3.381-1.353 4.328-.135.135-.27.27-.405.27-.136 0-.136-.135-.271-.135-.947-.947-4.598-7.438-5.41-10.278-.54-1.487-.946-3.11-.81-4.597.135-4.598 7.031-12.036 3.11-16.364-1.353-1.487-5.14-2.569-7.032-1.758-2.3 1.082-1.218 5.14-1.082 7.168.405 3.38 1.217 6.49 2.299 9.736 1.082 3.11 2.57 6.086 3.11 9.467-1.758-1.082-4.057-1.894-5.274-3.516-1.217-1.623-1.352-3.787-1.893-5.815-1.082-4.192-2.3-9.06-6.627-11.09-1.352-.676-4.192-1.622-5.003.136-.812 1.623.946 5.003 1.487 6.491a20.673 20.673 0 007.844 9.466c3.38 2.3 8.52 3.652 11.089 7.032 1.487 2.029 2.975 4.463 4.192 6.762.947 1.758.54 3.38.406 5.274-.27 5.004-.406 9.872-.136 14.876.136 3.786.947 7.978.812 11.9-.135.406-.135.676-.27.947-.136.135-.136.135-.271.135-2.029-3.11-2.434-6.491-2.84-10.007.135-1.082.27-2.164.676-3.516.406-1.488.812-3.11 1.217-4.598.406-1.758.406-2.705-.27-4.328-1.082-2.704-3.651-2.975-6.356-2.57-2.84.407-3.11 2.03-2.57 4.599.677 2.975 1.759 5.544 3.381 8.114 1.623 2.57 2.434 5.139 3.516 7.978.947 2.57 2.029 4.869 2.84 7.438.135.27.27.541.135.812h-.27s0-.136-.135-.136l-.135-.135c-.136-.135-.27-.406-.406-.406-.812-.81-1.488-1.758-2.164-2.704a145.375 145.375 0 00-3.786-5.95c-1.217-2.029-2.434-4.057-3.652-5.95-1.217-1.894-2.84-3.922-3.516-6.086-1.082-3.651.136-8.114.541-11.765.27-2.84.541-6.491-2.84-7.438-2.028-.541-7.167-.541-7.437 2.164-.136 1.758.676 3.921 1.217 5.544.54 1.758.946 3.516 1.622 5.139 1.488 3.786 4.328 6.085 6.762 9.331 2.434 3.246 4.192 7.032 6.22 10.548 2.165 3.651 4.463 6.897 7.574 9.872 2.704 2.57 2.164 7.708 2.299 11.224-3.381-2.434-6.627-4.868-9.737-7.708-2.84-2.705-3.245-6.356-4.463-10.007-.946-2.705-1.758-7.573-5.003-8.52-2.3-.676-7.844 1.217-9.196 3.246-1.893 2.84 4.192 5.68 5.95 6.897 3.516 2.299 6.762 4.733 9.872 7.573 3.11 2.704 6.356 5.139 9.602 7.843 1.487 1.217 2.84 2.705 3.65 4.463 0 2.164.271 4.327.271 6.491 0 .271.406.541.677.406l.135-.136c.135-.135.27-.405.135-.676 0-1.622-.135-3.245-.27-4.868 0-.947.135-1.758.405-2.57.812-1.487 3.11-3.11 4.328-4.327 2.704-2.704 5.274-5.274 8.52-7.302 2.974-1.894 15.551-7.709 10.683-12.307-1.894-1.893-5.815-3.65-8.52-2.975-3.11.812-3.786 4.192-4.327 7.032-.812 3.922-1.082 7.168-3.517 10.413-2.298 3.11-4.597 5.95-7.572 8.385-.406-3.922-1.623-8.385.54-11.9 2.57-4.058 5.274-7.98 7.438-12.172 1.894-3.65 3.246-7.573 5.274-11.224 2.029-3.651 5.14-6.491 7.709-9.737 2.028-2.434 5.409-6.49 3.921-9.872-.946-2.299-5.68-4.598-7.978-3.11-1.353.947-1.488 3.787-1.758 5.274-.406 2.164-.812 4.328-1.218 6.627-.81 4.192-1.352 8.249-2.84 12.306-2.974 7.843-7.572 14.875-12.035 21.772-.27-.947-.406-2.164-.406-3.38-.135-2.705.136-3.787 1.217-6.222.812-2.028 2.3-5.544 3.652-7.167.811-.946 1.893-1.623 2.704-2.434.135-.135.136-.27.27-.27 1.759-2.3 4.058-5.815.271-7.303-4.462-1.758-5.139 2.299-5.139 5.68-.135 1.217-.27 2.57-.405 3.786zm18.797-17.039a15.57 15.57 0 01-1.893 2.299c-.676.676-2.164 2.434-2.84 1.758-.947-.811.405-6.085.811-9.466.27-2.705.676-6.086 3.922-5.545 6.356 1.217 3.11 6.762 0 10.954zm-3.38-18.797c-.812 1.758-2.57 5.274-3.652 6.356-.541.54-1.217 1.081-1.758.676-.406-.406-.406-1.082-.406-1.488.135-1.487 0-2.975.135-4.462.136-.406.136-.812.27-1.082.407-2.029.542-5.545 3.246-5.545 3.381-.135 3.11 3.381 2.164 5.545zm-12.713-1.623c.136-.811.136-1.893.676-2.57.541-.54 2.029-.27 2.705.271.811.811.135 2.028-.54 2.975-.407.947-1.488 2.57-2.57 1.082-.27-.54-.406-1.217-.27-1.758zm5.274-14.74l-.27.27c-.27.406-.541.812-.812 1.082-.946.947-2.163.811-2.975.135-1.352-1.217 0-3.921.406-5.544l.811-2.84c.677-2.434.677-5.139 3.652-3.787 5.544 2.705 2.299 7.168-.812 10.684zM29.165 16.52c-.27 1.217-.405 3.787-1.352 4.869-.135.135-.27.27-.406.27-.27-.135-.405-.406-.676-.541-1.893-1.758-1.758-3.651-.676-4.733.27-.406 2.164-1.623 2.975-1.217.135.405.135.947.135 1.352zm-12.982-5.68c-.135-.811-.27-2.028.27-2.569.271-.27.677-.406 1.353-.27 1.758.135 3.651.54 4.463 1.758 1.487 2.028-.27 5.814-.947 7.843-.406 1.352-.947 2.975-2.705 2.434-1.487-.405-1.623-2.028-1.758-3.245-.27-1.894-.405-3.922-.676-5.95zM11.72 23.282c.136.811.541 2.434 0 2.975-.405.54-1.487.27-2.028-.135-.27-.27-.811-1.082-.947-1.353-2.163-2.704-3.921-5.68-5.003-8.925-.27-.676-.541-1.352-.135-1.893l.135-.136c.405-.405 2.028-.676 3.516.677.27.27.54.405.676.676.811.811 1.352 1.758 1.893 2.975.676 1.623 1.488 3.38 1.893 5.139zM24.703 57.36c-.406 1.217-.135 2.57-1.352 3.922-.812.947-1.894.947-2.435.406-.27-.27-.676-.812-.811-.947l-.541-1.082c-.676-1.758-2.84-5.95-.947-7.302 1.623-1.082 5.274-.541 6.086 1.352.27.947.27 2.299 0 3.651zm9.601-1.352c.947-.541 2.975 0 3.516.947.812 1.487-1.217 3.516-1.893 4.598-3.651 4.056-3.922-4.328-1.623-5.545zm-22.584-5.95c0 1.217-.135 2.975-.946 3.922-.676.676-1.623 1.081-2.3.405-1.081-.946-1.622-2.84-1.892-4.192-.541-1.352-.947-2.84-1.353-4.327-.27-.947-1.082-2.976-.811-3.922.406-1.488 1.487-1.217 2.975-1.217 1.352 0 3.246-.406 4.192.676.812.947.406 2.705.406 3.922-.135 1.487-.27 3.11-.27 4.733zM2.526 71.83c-.406-.54-.676-1.217-.27-1.758l.27-.27c2.163-1.217 5.003-2.84 7.167-1.623 1.217.676 1.758 2.164 2.164 3.245.676 1.488 1.623 3.246 1.893 4.734.135 1.081 0 2.569-1.488 2.569-.811 0-2.569-1.758-3.245-2.164-2.164-1.352-4.463-2.975-6.491-4.733zm43.95 8.385c-.946.405-3.516 2.163-4.192 1.487-.676-.54.135-9.06 2.164-11.36.811-.946 1.487-.946 2.434-.946 1.893 0 3.922 1.082 5.274 2.028 3.38 2.3.947 3.787-1.623 5.815-1.217.947-2.704 2.3-4.057 2.975z"/></symbol><symbol viewBox="0 0 76 99" id="article3" xmlns="http://www.w3.org/2000/svg"><path d="M74.617 8.721c-.817-3.02-2.996-2.882-5.31-1.098-4.765 3.707-8.033 9.335-10.62 14.826-2.45 5.08-4.084 10.708-4.084 16.474 0 1.51.136 3.02 0 4.53-.272 1.51-.953 2.883-1.497 4.393-1.09 2.745-1.907 5.628-3.132 8.374-.817-3.981-1.906-7.688-3.54-11.395-.816-1.784-1.633-3.569-2.859-5.079-1.089-1.373-2.178-2.196-1.225-3.98.817-1.648 2.042-2.884 2.86-4.531.68-1.51 1.088-3.157 1.224-4.667.273-3.432-.544-7.139-1.77-10.434-2.314-5.765-6.807-10.707-12.253-13.59-5.99-3.157-13.614-3.02-20.013-1.51-3.131.824-6.535 1.922-9.258 3.706C1.506 5.701.009 7.211.009 9.27c-.136 2.472 1.361 4.943 2.45 7.139 1.498 2.883 2.996 5.766 4.902 8.511 6.67 10.021 16.745 18.12 29.27 15.1 2.996-.686 5.038.413 6.536 3.158 1.497 3.02 2.587 6.727 3.267 10.021.681 3.707.953 7.413 1.362 11.12.408 3.432.953 7.001.68 10.433-5.31-6.04-11.3-10.982-18.924-13.59-3.676-1.236-7.488-2.06-11.3-2.334-3.403-.275-7.488-.412-10.755.686-2.45.824-2.179 2.746-1.498 4.942 1.225 3.707 3.268 7.276 5.446 10.433 4.22 5.903 10.347 10.159 17.563 11.12 3.403.549 6.943.137 10.21-.824 1.907-.549 3.677-1.373 5.446-2.334 1.498-.823 2.587-2.196 3.949-3.294.408.412.272 1.922.272 2.47.136 1.099.136 2.06.272 3.158.137 1.922.273 3.981.409 5.903.136 1.51-.545 8.786 2.314 7.825 1.362-.412 1.226-1.51.953-2.608-.408-1.785-.953-3.57-1.089-5.492-.272-3.706-.272-7.55-.544-11.394-.409-6.589-.681-12.904.408-19.493.545-3.157 1.498-6.315 2.723-9.335.544-1.51 1.089-3.02 1.634-4.393.408-.96.544-2.47 1.633-2.883 1.362-.686 3.54-.411 5.038-.686a17.719 17.719 0 003.812-1.235c2.314-1.099 4.357-3.02 5.718-5.217 3.54-5.216 3.948-11.943 3.812-17.983-.544-3.158-.544-6.59-1.361-9.473zM37.449 24.646c-.409 1.235-1.09 4.118-2.45 4.392-1.362.275-4.766-4.392-5.855-5.628-.136-.412-.136-.823 0-1.51.272-1.235.545-2.47.817-3.844.408-2.608.272-5.354.136-7.962-.136-2.47-.817-5.079-.953-7.55 4.629.824 10.62 5.217 10.62 10.296 0 4.118-1.09 7.962-2.315 11.806zM19.34 1.308c.409-.549 2.587-.274 3.132-.274 1.634 0 4.765.137 5.446 1.785.816 2.059.816 4.804 1.089 7 .136 2.197.272 4.53.136 6.727-.136 1.648 0 4.53-1.225 5.903-1.634-1.373-4.357-2.883-5.446-4.805-.545-.96-.273-2.196-.273-3.294 0-1.098-.136-2.334-.272-3.432-.408-2.334-1.089-4.668-1.906-7.001-.272-.55-1.225-2.06-.68-2.609zm-3.948.138c.545 0 1.362-.275 1.77-.138.953.275.953.687 1.361 1.648.545 1.373 1.09 2.883 1.498 4.393.817 3.157 1.362 6.315 1.362 9.472C15.12 12.84 8.858 9.682 2.05 6.8c3.131-3.432 8.986-4.805 13.342-5.354zM7.77 22.86c-2.042-1.51-3.268-4.805-4.357-7.138C2.187 13.252.553 10.23 1.098 7.349c8.169 2.883 15.929 7.138 22.464 12.767-2.86 1.51-5.99 2.47-9.122 3.02-2.178.549-4.765 1.235-6.671-.275zM12.534 30c-1.498-1.648-2.859-3.432-3.948-5.354 2.45-.275 4.901-.138 7.216-.824 2.314-.686 4.492-1.647 6.807-2.334 1.906-.549 2.723.412 4.084 1.785.817.96 1.77 1.785 2.723 2.745.409.412 1.226 1.099 1.634 1.648.408.686.544.412 0 1.098-1.225 1.647-4.084 2.334-5.99 2.883-2.451.686-4.902 1.235-7.352 1.235-2.451-.137-3.54-1.235-5.174-2.882zm4.22 3.706c4.766-.96 9.803-1.647 14.16-3.844 1.77-.96 2.314.412 3.403 1.922 1.498 1.922 2.996 3.844 4.085 6.04-6.127 3.432-17.018 1.373-21.647-4.118zm22.737 2.608c-.817-1.235-1.77-2.333-2.587-3.569-.136-.274-.408-.55-.544-.686a6.746 6.746 0 010-3.295c0-.137.136-.275.136-.412.136-.274.272-.549.272-.823.272-.55.408-.961.68-1.51 2.043-4.53 3.268-9.198 2.996-14.277 5.582 7.687 5.854 17.708-.953 24.572zm2.315 33.633c1.906 1.922 3.812 3.57 5.037 6.04-1.362 0-2.86-.411-3.676-1.647-.68-.824-1.498-3.157-1.361-4.393zm-2.315-1.51c1.498 1.922 2.178 4.393 2.859 6.727-1.361-.275-3.131-.275-4.357-.824-1.089-.549-1.497-1.922-2.042-3.02-.408-.96-2.995-7.55-3.267-7.55 2.314 1.235 5.173 2.47 6.807 4.667zm-7.76-4.118c1.906 2.883 3.131 6.04 4.22 9.197-1.77-.274-3.54-.686-5.173-1.235-1.226-.412-3.404-.686-4.22-1.785-.954-1.372-1.362-3.569-1.907-5.079-.544-1.647-1.225-3.294-1.77-4.942 2.995.412 7.352 1.373 8.85 3.844zM20.839 60.2c.953.549 1.498 1.647 1.906 2.47 1.361 2.334 2.314 4.943 2.723 7.55-1.77-.274-4.901-1.235-5.99-2.607-.681-.824-.954-2.609-1.226-3.57-.544-1.372-.953-2.882-1.497-4.255 1.361 0 2.995-.138 4.084.412zm-9.258-.412c1.09 0 2.723-.412 3.676.137 1.77.961 2.86 5.217 2.995 7.001-2.042-.412-4.22-1.647-5.99-2.745-1.634-.961-3.812-2.197-5.038-3.844 1.362-.275 2.86-.55 4.357-.55zm-1.77 10.296c-1.225-.824-1.634-2.883-2.314-4.119-.681-1.51-1.09-2.883-1.498-4.393 4.085 2.334 8.169 4.805 12.253 7.139-1.77 1.098-6.399 2.745-8.44 1.373zm.545 1.372c2.723-.411 5.31-1.235 8.032-1.921 2.315-.55 4.765 1.098 6.808 2.059-.409.412-.817.823-1.362 1.098-1.089.686-2.178 1.51-3.54 1.922-.136.137-.408.137-.544.137-.136 0-.273.137-.409.137-1.633.412-3.131.55-4.765.824-.136 0-.408 0-.544-.137-1.77-.412-2.723-2.746-3.676-4.119zm11.3 10.845a20.279 20.279 0 01-4.084-2.47c-1.226-.962-2.179-2.472-3.268-3.295.68-.138 1.225-.275 1.906-.412 3.404 0 7.488-1.51 9.53-3.844.545-.137 1.226-.137 1.906 0 1.906.55 3.676 1.235 5.446 1.785.817.274 2.587.549 2.86 1.235.135.55-.545 1.647-.818 2.197-.953 1.51-2.314 2.608-3.676 3.569-1.361.96-3.267 2.196-5.037 2.47-1.634.275-3.267-.548-4.765-1.235zm17.018 1.373c-1.498.687-3.267.824-4.765.824-2.314.137-4.629.274-6.807-.412 2.587-1.236 5.445-2.471 7.488-4.668.953-.96 1.361-2.333 2.178-3.431.272-.138.408-.275.545-.55l.136-.137s.136 0 .136-.137c.136 0 .136 0 .272-.137l1.226.274c.816.275 1.77.412 2.586.686 0 2.883-.408 6.315-2.995 7.688zm2.45-.824c.273-1.098.545-2.196.818-3.157.136-.686.272-2.196.68-2.746.545-.686 4.22.275 5.446.412-1.634 2.471-4.084 4.256-6.943 5.491zM70.397 8.996c-.544 2.197-1.225 4.393-1.77 6.727-2.45-3.02-2.178-4.256 1.77-6.727zm-7.352 9.06c.136-1.922 2.042-3.843 3.132-5.354.544 1.785 1.77 3.707 1.633 5.629-.136 2.196-1.361 4.393-2.178 6.452-1.09-1.785-2.723-4.53-2.587-6.727zm-3.131 5.903c-.136-1.784 1.225-3.569 2.042-4.942.409 1.099.817 2.06 1.225 3.158.409 1.098 1.226 2.059 1.498 3.157.545 2.06-.953 3.707-1.906 5.354-1.225-1.785-2.587-4.53-2.86-6.727zM56.1 41.394c-.273-5.629.68-11.257 2.995-16.336.817 1.647 1.498 3.157 2.315 4.804.68 1.51.953 2.197.272 3.707-1.498 2.745-3.404 5.49-5.582 7.825zm1.089.411c.817-1.235 1.77-3.294 3.267-3.431 1.77-.275 4.085.411 5.855.549-2.587 1.921-5.855 2.47-9.122 2.882zM69.715 30.55l2.86-.961c-.409 2.608-1.77 5.765-3.949 7.55-2.042 1.647-6.126 1.235-8.305.275l3.676-5.766.817-.412c.953-.275 1.498.137 3.268-.274l1.633-.412zm-1.225-.687c-.817.138-2.995.55-3.131-.549.544-1.235.953-2.608 1.361-3.98.409-1.236.68-2.61 1.498-3.707.68-1.236 2.587-.824 5.037-2.334.136 0 .273-.137.409-.137.272 1.647.272 3.294.136 4.942-.136 1.098-.136 3.157-.681 4.118-.817 1.098-2.723 1.51-4.629 1.647zm5.31-13.727c.136 2.196-2.723 3.843-4.901 3.706 1.089-4.118 2.178-8.237 3.267-12.218 1.498 2.334 1.498 5.766 1.634 8.511z"/></symbol><symbol viewBox="0 0 56 104" id="article4" xmlns="http://www.w3.org/2000/svg"><path d="M31.6 64.933c-.136 2.3-1.082 4.192-2.164 6.086l-.406.811c-.811-1.623-.676-3.516-.676-5.544-.135-2.164-.406-4.598-.27-6.897.135-2.029 1.487-3.11 2.84-4.463 1.487-1.623 2.84-3.516 4.056-5.41 2.435-3.786 5.004-7.302 7.709-10.818 2.299-3.11 6.22-7.573 6.49-11.495.136-2.704-2.84-5.95-5.814-5.138-2.975.946-2.975 7.573-3.246 10.007-.676 4.598-1.487 8.655-3.786 12.847-2.164 3.786-4.598 8.384-8.25 10.954-.405-1.217.136-2.975.136-4.192.135-1.353.135-2.84.135-4.193.135-2.299-.135-4.327 1.217-6.356 2.975-4.597 7.168-8.384 9.331-13.388.676-1.758.27-3.65-1.758-4.327-2.57-.811-3.516 1.623-3.786 3.651-.27 2.3.27 4.598-.406 6.762-.676 2.164-2.164 4.057-3.516 5.95 0-1.758.27-3.38.54-5.004 2.03-11.359 1.624-7.032 2.3-10.277.54-1.893 1.352-3.651 2.84-5.274 2.84-2.975 5.815-5.815 8.249-9.196 1.217-1.758 2.299-3.922 1.217-6.085C43.77 2.05 40.525-.25 38.496.022c-2.434.406-2.84 5.274-3.38 7.167-2.029 6.897-2.84 13.794-5.274 20.555.135-.405-.541-1.893-.677-2.434-.135-1.082.136-2.163.406-3.245.541-2.164 1.488-5.545.947-7.709-.812-2.975-6.086.677-6.356 2.84-.135 1.894 1.082 3.652 2.028 5.14 1.217 2.028 2.3 4.191 2.84 6.49.406 2.3 0 4.193-.405 6.491-.136.947-.406 3.381-1.353 4.328-.135.135-.27.27-.405.27-.136 0-.136-.135-.271-.135-.947-.947-4.598-7.438-5.41-10.278-.54-1.487-.946-3.11-.81-4.597.135-4.598 7.031-12.036 3.11-16.364-1.353-1.487-5.14-2.569-7.032-1.758-2.3 1.082-1.218 5.14-1.082 7.168.405 3.38 1.217 6.49 2.299 9.736 1.082 3.11 2.57 6.086 3.11 9.467-1.758-1.082-4.057-1.894-5.274-3.516-1.217-1.623-1.352-3.787-1.893-5.815-1.082-4.192-2.3-9.06-6.627-11.09-1.352-.676-4.192-1.622-5.003.136-.812 1.623.946 5.003 1.487 6.491a20.673 20.673 0 007.844 9.466c3.38 2.3 8.52 3.652 11.089 7.032 1.487 2.029 2.975 4.463 4.192 6.762.947 1.758.54 3.38.406 5.274-.27 5.004-.406 9.872-.136 14.876.136 3.786.947 7.978.812 11.9-.135.406-.135.676-.27.947-.136.135-.136.135-.271.135-2.029-3.11-2.434-6.491-2.84-10.007.135-1.082.27-2.164.676-3.516.406-1.488.812-3.11 1.217-4.598.406-1.758.406-2.705-.27-4.328-1.082-2.704-3.651-2.975-6.356-2.57-2.84.407-3.11 2.03-2.57 4.599.677 2.975 1.759 5.544 3.381 8.114 1.623 2.57 2.434 5.139 3.516 7.978.947 2.57 2.029 4.869 2.84 7.438.135.27.27.541.135.812h-.27s0-.136-.135-.136l-.135-.135c-.136-.135-.27-.406-.406-.406-.812-.81-1.488-1.758-2.164-2.704a145.375 145.375 0 00-3.786-5.95c-1.217-2.029-2.434-4.057-3.652-5.95-1.217-1.894-2.84-3.922-3.516-6.086-1.082-3.651.136-8.114.541-11.765.27-2.84.541-6.491-2.84-7.438-2.028-.541-7.167-.541-7.437 2.164-.136 1.758.676 3.921 1.217 5.544.54 1.758.946 3.516 1.622 5.139 1.488 3.786 4.328 6.085 6.762 9.331 2.434 3.246 4.192 7.032 6.22 10.548 2.165 3.651 4.463 6.897 7.574 9.872 2.704 2.57 2.164 7.708 2.299 11.224-3.381-2.434-6.627-4.868-9.737-7.708-2.84-2.705-3.245-6.356-4.463-10.007-.946-2.705-1.758-7.573-5.003-8.52-2.3-.676-7.844 1.217-9.196 3.246-1.893 2.84 4.192 5.68 5.95 6.897 3.516 2.299 6.762 4.733 9.872 7.573 3.11 2.704 6.356 5.139 9.602 7.843 1.487 1.217 2.84 2.705 3.65 4.463 0 2.164.271 4.327.271 6.491 0 .271.406.541.677.406l.135-.136c.135-.135.27-.405.135-.676 0-1.622-.135-3.245-.27-4.868 0-.947.135-1.758.405-2.57.812-1.487 3.11-3.11 4.328-4.327 2.704-2.704 5.274-5.274 8.52-7.302 2.974-1.894 15.551-7.709 10.683-12.307-1.894-1.893-5.815-3.65-8.52-2.975-3.11.812-3.786 4.192-4.327 7.032-.812 3.922-1.082 7.168-3.517 10.413-2.298 3.11-4.597 5.95-7.572 8.385-.406-3.922-1.623-8.385.54-11.9 2.57-4.058 5.274-7.98 7.438-12.172 1.894-3.65 3.246-7.573 5.274-11.224 2.029-3.651 5.14-6.491 7.709-9.737 2.028-2.434 5.409-6.49 3.921-9.872-.946-2.299-5.68-4.598-7.978-3.11-1.353.947-1.488 3.787-1.758 5.274-.406 2.164-.812 4.328-1.218 6.627-.81 4.192-1.352 8.249-2.84 12.306-2.974 7.843-7.572 14.875-12.035 21.772-.27-.947-.406-2.164-.406-3.38-.135-2.705.136-3.787 1.217-6.222.812-2.028 2.3-5.544 3.652-7.167.811-.946 1.893-1.623 2.704-2.434.135-.135.136-.27.27-.27 1.759-2.3 4.058-5.815.271-7.303-4.462-1.758-5.139 2.299-5.139 5.68-.135 1.217-.27 2.57-.405 3.786zm18.797-17.039a15.57 15.57 0 01-1.893 2.299c-.676.676-2.164 2.434-2.84 1.758-.947-.811.405-6.085.811-9.466.27-2.705.676-6.086 3.922-5.545 6.356 1.217 3.11 6.762 0 10.954zm-3.38-18.797c-.812 1.758-2.57 5.274-3.652 6.356-.541.54-1.217 1.081-1.758.676-.406-.406-.406-1.082-.406-1.488.135-1.487 0-2.975.135-4.462.136-.406.136-.812.27-1.082.407-2.029.542-5.545 3.246-5.545 3.381-.135 3.11 3.381 2.164 5.545zm-12.713-1.623c.136-.811.136-1.893.676-2.57.541-.54 2.029-.27 2.705.271.811.811.135 2.028-.54 2.975-.407.947-1.488 2.57-2.57 1.082-.27-.54-.406-1.217-.27-1.758zm5.274-14.74l-.27.27c-.27.406-.541.812-.812 1.082-.946.947-2.163.811-2.975.135-1.352-1.217 0-3.921.406-5.544l.811-2.84c.677-2.434.677-5.139 3.652-3.787 5.544 2.705 2.299 7.168-.812 10.684zM29.165 16.52c-.27 1.217-.405 3.787-1.352 4.869-.135.135-.27.27-.406.27-.27-.135-.405-.406-.676-.541-1.893-1.758-1.758-3.651-.676-4.733.27-.406 2.164-1.623 2.975-1.217.135.405.135.947.135 1.352zm-12.982-5.68c-.135-.811-.27-2.028.27-2.569.271-.27.677-.406 1.353-.27 1.758.135 3.651.54 4.463 1.758 1.487 2.028-.27 5.814-.947 7.843-.406 1.352-.947 2.975-2.705 2.434-1.487-.405-1.623-2.028-1.758-3.245-.27-1.894-.405-3.922-.676-5.95zM11.72 23.282c.136.811.541 2.434 0 2.975-.405.54-1.487.27-2.028-.135-.27-.27-.811-1.082-.947-1.353-2.163-2.704-3.921-5.68-5.003-8.925-.27-.676-.541-1.352-.135-1.893l.135-.136c.405-.405 2.028-.676 3.516.677.27.27.54.405.676.676.811.811 1.352 1.758 1.893 2.975.676 1.623 1.488 3.38 1.893 5.139zM24.703 57.36c-.406 1.217-.135 2.57-1.352 3.922-.812.947-1.894.947-2.435.406-.27-.27-.676-.812-.811-.947l-.541-1.082c-.676-1.758-2.84-5.95-.947-7.302 1.623-1.082 5.274-.541 6.086 1.352.27.947.27 2.299 0 3.651zm9.601-1.352c.947-.541 2.975 0 3.516.947.812 1.487-1.217 3.516-1.893 4.598-3.651 4.056-3.922-4.328-1.623-5.545zm-22.584-5.95c0 1.217-.135 2.975-.946 3.922-.676.676-1.623 1.081-2.3.405-1.081-.946-1.622-2.84-1.892-4.192-.541-1.352-.947-2.84-1.353-4.327-.27-.947-1.082-2.976-.811-3.922.406-1.488 1.487-1.217 2.975-1.217 1.352 0 3.246-.406 4.192.676.812.947.406 2.705.406 3.922-.135 1.487-.27 3.11-.27 4.733zM2.526 71.83c-.406-.54-.676-1.217-.27-1.758l.27-.27c2.163-1.217 5.003-2.84 7.167-1.623 1.217.676 1.758 2.164 2.164 3.245.676 1.488 1.623 3.246 1.893 4.734.135 1.081 0 2.569-1.488 2.569-.811 0-2.569-1.758-3.245-2.164-2.164-1.352-4.463-2.975-6.491-4.733zm43.95 8.385c-.946.405-3.516 2.163-4.192 1.487-.676-.54.135-9.06 2.164-11.36.811-.946 1.487-.946 2.434-.946 1.893 0 3.922 1.082 5.274 2.028 3.38 2.3.947 3.787-1.623 5.815-1.217.947-2.704 2.3-4.057 2.975z"/></symbol><symbol viewBox="0 0 10 17" id="facebook" xmlns="http://www.w3.org/2000/svg"><path d="M8.845.004L6.64 0C4.164 0 2.563 1.642 2.563 4.184v1.929H.347A.347.347 0 000 6.46v2.794c0 .192.155.347.347.347h2.216v7.052c0 .192.155.347.347.347h2.892a.347.347 0 00.346-.347V9.601H8.74a.347.347 0 00.347-.347V6.46a.347.347 0 00-.346-.347H6.148V4.477c0-.785.188-1.184 1.212-1.184l1.485-.001a.347.347 0 00.346-.347V.35a.347.347 0 00-.346-.346z"/></symbol></svg>